<svg id="Layer_1" data-name="Layer 1" xmlns="http://www.w3.org/2000/svg" xmlns:xlink="http://www.w3.org/1999/xlink" viewBox="0 0 1200 1200"><defs><style>.cls-1,.cls-4,.cls-8,.cls-9{fill:none;}.cls-2{fill:#e9e8e8;}.cls-3{fill:#fff;}.cls-4,.cls-8{stroke:#1d252e;stroke-width:4px;}.cls-4,.cls-8,.cls-9{stroke-linecap:round;}.cls-4{stroke-linejoin:round;}.cls-5{fill:#1d252e;}.cls-6{fill:#9dd5c0;}.cls-7{clip-path:url(#clip-path);}.cls-9{stroke:#9dd5c0;stroke-width:5.91px;}</style><clipPath id="clip-path"><path class="cls-1" d="M240.9,361.83H994a0,0,0,0,1,0,0v360.9A256.12,256.12,0,0,1,737.91,978.86H497A256.12,256.12,0,0,1,240.9,722.73V361.83a0,0,0,0,1,0,0Z"/></clipPath></defs><path id="Path-141" class="cls-2" d="M758.14,467.29C647.45,392.45,393.16,193.21,260,309.14S199.75,981.74,592,921.8c147.36-22.52,370-34.95,401.22-104C1045.12,702.94,827.25,514,758.14,467.29Z"/><path class="cls-3" d="M590.57,452l37.22,26.15-79.9-11.75v59.76a19,19,0,0,1-19,19H224c-16.56,0-18.07-11.93-18.07-26.63V263.42A32.47,32.47,0,0,1,238.44,231H518c16.56,0,30,11.92,30,26.63V412.79"/><path class="cls-4" d="M590.57,452l37.22,26.15-79.9-11.75v59.76a19,19,0,0,1-19,19H224c-16.56,0-18.07-11.93-18.07-26.63V263.42A32.47,32.47,0,0,1,238.44,231H518c16.56,0,30,11.92,30,26.63V412.79"/><path id="Path-102" class="cls-5" d="M369.3,250.53q4.33-17.21-2.5-26.76c-6.83-9.54-23.26-21.71-46.52-18.05s-40.95,24.95-45.3,48.06q-4.34,23.11,5.64,49.09,6.4,8.36,13.23,8.22c6.83-.14,20.57-3.94,25.07-9Q323.41,297,369.3,250.53Z"/><path id="Path-103" class="cls-3" d="M366.3,250.6,373,267.33,371.32,287l-9.55,14.46-10.59,6.87.47,34.69,26.17.41-10.7,22.8c-16.05,9-35,10.92-55.41,9.2l-31.9-28.75L319,340.84,320.87,309l-10.44-13.13-5-12.63-8.63-.77L293.84,269l6-7,11.31-2.67,7-12.62-1.71-10.43L347.5,251Z"/><path id="Path-86" class="cls-4" d="M366.3,250.6a46,46,0,0,1,5.93,33Q368.95,301,350,308.32l1.62,34.73,15.49.24"/><path id="Path-87" class="cls-4" d="M365.66,249.39q-4.2,3.08-16.85.35t-32.39-13.5a20.62,20.62,0,0,1,.29,14.17,19.56,19.56,0,0,1-8.09,10.73q-10.78-2.52-13.57,5.9c-2.78,8.42.19,15.24,3,16.34q2.82,1.11,7.31-.15,0,6.42,6.22,14.62t9.18,8.87l-.42,34.37-22.63,2.6"/><path id="Path-98" class="cls-4" d="M353.47,306.78a21.85,21.85,0,0,1-8.13,2.89,36.29,36.29,0,0,1-12.74-.25"/><path id="Path-104" class="cls-4" d="M295.55,314.58a11.49,11.49,0,0,1-6.65.14q-4-.89-9-6.42"/><path id="Path-105" class="cls-5" d="M294.87,319q-2.47,1.32-8.67.18T276,311.46q-5.1.1-9.93,10.13c-4.84,10-1.45,22.43-5.43,29.09q-4,6.66-12.92,12.46,29.89,3,39.86-14.06T294.87,319Z"/><path id="Path-93" class="cls-3" d="M435.32,467.55q33,24.09,43.57,18.13c7.06-4,88.72-37.3,88.72-37.3s11.28-1.26,15.41-1.33c12.39-.21,34.27-19.45,24.87-25.28-4.21-2.62-25.87-6.92-33.52-5.31-2.27.48-8.58-8.2-11.88-6.37-4.09,2.28-5.46,15.43-11.14,19.78l-80,4.72-12.8-6Z"/><path id="Path-93-2" data-name="Path-93" class="cls-4" d="M556.9,425.77c-1.76,1.24-3.6,2.61-5.55,4.1l-80,4.72"/><path id="Path-93-3" data-name="Path-93" class="cls-4" d="M450.14,477.55q20.76,12.63,28.75,8.13c7.06-4,88.72-37.3,88.72-37.3s7.76-.39,15.41-1.33,34.4-17.25,24.87-25.28-25.87-6.92-33.52-5.31a22.32,22.32,0,0,0-4.15,1.38"/><path class="cls-6" d="M464,424.24l-2.93,5.52-21.66,40.73-3,5.62-.78,1.47-3.51-2.77-39.33-31.06c-2.68,1.59-5.5,26.79-5.5,26.79s.51,4.37,1.34,11.45c.76,6.52,1.79,15.34,2.91,25.14,1.31,11.31,2.76,23.94,4.09,35.86L258,543.32c0-21-.22-45.42-1-70.71q-.1-3.66-.22-7.27c-3.05-6.87-5.73-13.59-8.05-20.09a256.55,256.55,0,0,1-8-26.59,0,0,0,0,0,0,0c-4.68-19.49-5.77-35.3-4.37-44.81a23.17,23.17,0,0,1,1.77-6.56c5.45-11.44,22.89-17.21,45.07-22.26,18.8-1.08,35,29.6,58.46,27.89,18.75-1.49,25.37-29.59,32.62-32.59S426.93,372.4,464,424.24Z"/><path class="cls-6" d="M278.73,275.3l23.25-18a3.63,3.63,0,0,1,5.13.67l34.2,46.23a3.48,3.48,0,0,1-1,5L315,325.05a3.61,3.61,0,0,1-4.84-.9L278,280.09A3.46,3.46,0,0,1,278.73,275.3Z"/><polyline class="cls-4" points="283.13 278.4 304.56 261.76 334.73 302.04"/><path id="Path-93-4" data-name="Path-93" class="cls-3" d="M294.94,425.17c26.73-5.21,39.79-12.16,42.91-19.63s-21-101.85-21-101.85,1.81-12.18-.7-15.45-2.69-26.4-17.95-25-14.27,24.7-13,32.4q1.31,7.71,12.47,23.55l2.84,50.7-20.86,8.77C274.78,397.9,278.44,414,294.94,425.17Z"/><path id="Path-93-5" data-name="Path-93" class="cls-4" d="M309.42,421.83c17.09-4.68,25.94-10.32,28.43-16.29,3.13-7.47-21-101.85-21-101.85s1.81-12.18-.7-15.45-6.92-24.92-18.44-24.48-13.78,24.17-12.48,31.87q1.31,7.71,12.47,23.55l2.84,50.7-12.42,5.22"/><path id="Path-88" class="cls-6" d="M302.21,426.68c-21.56-16.22-26-35.15-10.14-57.32-22.75-10.42-37.73-12.89-47-9.42s-29,24.32-23.07,45.44S235,440,251.2,447.15,302.21,426.68,302.21,426.68Z"/><path class="cls-4" d="M388,411.5c7.13,10.32,9.23,28.33.78,45.95"/><path class="cls-4" d="M570,418.75c-.65-3.91-2.25-11.61-8.54-8.53s-1.41,13.66-5,16"/><path class="cls-4" d="M281.48,433.43c-5.3,7.95-23,12.47-28.6,9.54"/><g class="cls-7"><path class="cls-6" d="M823.83,1003.47c3.84,0,7.73-.14,11.64-.45a128,128,0,0,0,62.23-21.84l-17.72-7s42.29-45.15,44.43-75c3.47-48.34,3.09-293.68,3.09-293.68-23.87-27.29-62.75-43.71-103.81-40.36q-5.79.46-11.41,1.44c-47.27,8.14-84.56,42-90.5,85.49L694,856.16C683.47,932.91,744,1003.22,823.83,1003.47Z"/><path class="cls-8" d="M935.14,638.78c-29.95-54.32-102.08-73.32-152-50.89"/><rect class="cls-5" x="731.82" y="1017.03" width="52.07" height="46.55" transform="translate(1515.72 2080.6) rotate(-180)"/><path class="cls-5" d="M594.54,1033.72c-35.44-21.07-25.21-47.48-5.73-60.57s148-19.95,187-15.73S951.7,967.71,915.7,1030.5C890.51,1074.44,630,1054.8,594.54,1033.72Z"/><path class="cls-5" d="M880,974.22l17.72,7A124.29,124.29,0,0,0,951.8,878l-.28-210.65a89.47,89.47,0,0,0-1.61-16.78,95.63,95.63,0,0,0-22.42-45s.38,245.34-3.08,293.68C922.27,929.07,880,974.22,880,974.22Z"/><path id="Path-89" class="cls-6" d="M830.13,867.05c-72.47,25.9-137.57,25.32-137.57,25.32s-54,32.77-105.69,55c-40.64,16.26-61.51,24.28-65.43,39.56s20.77,93.2,31.88,105,48.61,29.46,65.7,32.93c134.05-77.4,74.25-105.8,196.33-150.77C846.38,950.13,890.83,905.52,830.13,867.05Z"/><path id="Path-105-2" data-name="Path-105" class="cls-5" d="M794.31,611.07q2.78,1.8,10.18,1.09t12.73-8q6,.65,10.65,12.92c4.67,12.27-.57,26.52,3.43,34.75q4,8.24,13.93,16-35.46.47-45.44-20.57T794.31,611.07Z"/><path id="Path-102-2" data-name="Path-102" class="cls-5" d="M714.74,524.1q-3.36-20.69,5.65-31.21c9-10.53,33.28-25,60.26-18.31s41.89,35.3,44.65,62.91q2.76,27.62-11.61,57.14-8.37,9.18-16.39,8.32c-8-.86-23.79-6.72-28.55-13.14Q764,583.39,714.74,524.1Z"/><path id="Path-103-2" data-name="Path-103" class="cls-3" d="M718.27,523.85l-6,20.39,4,23,12.77,16,13.19,6.94,1.68,23.72.31,23.58-25.73,15.05C713.18,658,758,672.71,773.8,671.74c26.34-1.62,38.19-25.32,38.19-25.32l-29.16-14.08-4.89-44.76L788.8,571l4.56-15.39,10.07-1.83,2-16.17-7.79-7.6L784,528.13,774.45,514l.9-12.44-35,20.68Z"/><path id="Path-86-2" data-name="Path-86" class="cls-8" d="M718.27,523.85a54.22,54.22,0,0,0-3.42,39.37q5.73,20.12,28.76,26.72l.64,47.47-19.7,11.52"/><path id="Path-87-2" data-name="Path-87" class="cls-8" d="M718.9,522.36q5.25,3.17,19.83-1.4t36.62-19.36a24.26,24.26,0,0,0,1.18,16.68A23.05,23.05,0,0,0,787.19,530q12.4-4.12,16.58,5.47c4.18,9.59,1.42,17.92-1.79,19.53a13.19,13.19,0,0,1-8.57,1.38c.48,5-1.48,10.2-5.79,17.08s-7.58,10.68-9.83,11.42l3.37,47.5,9.21,3.57"/><path id="Path-98-2" data-name="Path-98" class="cls-8" d="M739.4,588.49q3.44,1.92,9.86,2.52a42.62,42.62,0,0,0,15-1.67"/><path id="Path-104-2" data-name="Path-104" class="cls-8" d="M795,606.88a13.5,13.5,0,0,0,7.81.84q4.8-.63,11.22-6.63"/><polygon id="Path-108" class="cls-3" points="664.63 747.98 663.86 756.21 564.51 813.56 536.82 821.95 518.43 843.65 511.09 861.71 560.82 857.38 571.79 845.02 710.41 804.89 719.98 793.91 717.91 738.63 664.63 747.98"/><path id="Path-92" class="cls-8" d="M664.82,750.28l-1.28,6.29-97.43,56.69Q542.2,818.84,534.48,825c-7.71,6.19-27.82,35.59-21.72,37.08q6.09,1.49,48.06-4.73"/><path id="Path-93-6" data-name="Path-93" class="cls-8" d="M719,743.89q5.49,51.45-7.76,59.27c-8.83,5.22-51.19,13.72-139.4,41.86l-10.33,12.52"/><path id="Path-88-2" data-name="Path-88" class="cls-5" d="M723.89,644.71q5,14.5,25.08,20.5c13.35,4,32.26-1.2,61.17-23.38,25.64-4.52,46.13,4.55,61.84,20.87s18.3,114.35,3.43,224.19L680.07,900.17c0-.12,22.7-108.09,19.94-108.92l-13.82-24.89-37-12.27c16.64-55.82,16.43-66.83,24.37-82.44S698.3,647.06,723.89,644.71Z"/><path id="Path-99" class="cls-8" d="M707.69,707.74q-9,26.64-3.23,50.47t18.73,33.22l8.21,53.47"/><path class="cls-8" d="M726.48,931.85s-19.64,30-41.85,24.41S652,987.06,652,987.06"/><rect class="cls-6" x="82.96" y="848.81" width="943.34" height="304.05"/><polygon class="cls-5" points="810.62 869.21 716.55 913.56 400.02 913.56 400.02 905.02 494.1 860.65 810.62 860.65 810.62 869.21"/><polygon class="cls-6" points="799.62 861.25 712.73 902.22 420.34 902.22 420.34 894.32 507.25 853.34 799.62 853.34 799.62 861.25"/><line class="cls-8" x1="546.07" y1="872.58" x2="556.92" y2="872.58"/><line class="cls-8" x1="567.18" y1="872.58" x2="578.03" y2="872.58"/><line class="cls-8" x1="590.11" y1="872.58" x2="600.96" y2="872.58"/><line class="cls-8" x1="611.22" y1="872.58" x2="622.07" y2="872.58"/><line class="cls-8" x1="634.14" y1="872.58" x2="645" y2="872.58"/><line class="cls-8" x1="655.25" y1="872.58" x2="666.1" y2="872.58"/><line class="cls-8" x1="678.18" y1="872.58" x2="689.03" y2="872.58"/><line class="cls-8" x1="699.29" y1="872.58" x2="710.14" y2="872.58"/><line class="cls-8" x1="722.22" y1="872.58" x2="733.07" y2="872.58"/><line class="cls-8" x1="743.33" y1="872.58" x2="754.18" y2="872.58"/><line class="cls-8" x1="522.05" y1="883.14" x2="532.9" y2="883.14"/><line class="cls-8" x1="543.16" y1="883.14" x2="554.01" y2="883.14"/><line class="cls-8" x1="566.09" y1="883.14" x2="576.94" y2="883.14"/><line class="cls-8" x1="587.2" y1="883.14" x2="598.05" y2="883.14"/><line class="cls-8" x1="610.12" y1="883.14" x2="620.98" y2="883.14"/><line class="cls-8" x1="631.23" y1="883.14" x2="642.08" y2="883.14"/><line class="cls-8" x1="719.31" y1="883.14" x2="730.16" y2="883.14"/><line class="cls-8" x1="504.95" y1="893.33" x2="515.8" y2="893.33"/><line class="cls-8" x1="526.06" y1="893.33" x2="536.91" y2="893.33"/><line class="cls-8" x1="548.98" y1="893.33" x2="559.83" y2="893.33"/><line class="cls-8" x1="570.09" y1="893.33" x2="580.94" y2="893.33"/><line class="cls-8" x1="593.02" y1="893.33" x2="603.87" y2="893.33"/><line class="cls-8" x1="614.13" y1="893.33" x2="624.98" y2="893.33"/><line class="cls-8" x1="637.06" y1="893.33" x2="647.91" y2="893.33"/><line class="cls-8" x1="658.16" y1="893.33" x2="669.02" y2="893.33"/><line class="cls-8" x1="681.09" y1="893.33" x2="691.94" y2="893.33"/><line class="cls-8" x1="702.2" y1="893.33" x2="713.05" y2="893.33"/><line class="cls-8" x1="526.92" y1="862.16" x2="782.69" y2="862.16"/><polygon id="Path-108-2" data-name="Path-108" class="cls-3" points="816.01 770.04 815.24 778.27 715.89 835.63 688.2 844.02 669.81 865.71 662.47 883.77 712.2 879.45 723.17 867.09 861.79 826.96 871.36 815.97 869.29 760.7 816.01 770.04"/><path id="Path-92-2" data-name="Path-92" class="cls-8" d="M816.2,772.34l-1.28,6.29-97.43,56.69q-23.91,5.58-31.63,11.77c-7.71,6.19-27.82,35.6-21.72,37.09q6.09,1.49,48.06-4.73"/><path id="Path-93-7" data-name="Path-93" class="cls-8" d="M870.33,766q5.49,51.45-7.76,59.28c-8.83,5.21-51.19,13.72-139.4,41.86L712.84,879.6"/><path class="cls-6" d="M615.71,569.42H308.53a12.35,12.35,0,0,0-12.28,13.74l26,230.13a12.36,12.36,0,0,0,12.28,11H641.7A12.36,12.36,0,0,0,654,810.51L628,580.39A12.35,12.35,0,0,0,615.71,569.42Z"/><path class="cls-5" d="M587.17,912.39c0,9.71-51.69,17.58-115.45,17.58s-115.45-7.87-115.45-17.58v-8.21c0-9.7,51.69-17.56,115.45-17.56s115.45,7.86,115.45,17.56Z"/><path class="cls-6" d="M505.77,896.33c0,10.47-72.07,10.47-72.07,0V693h72.07Z"/><polyline class="cls-4" points="308.65 582.61 613.46 582.61 637.81 805.62"/><circle class="cls-3" cx="465.64" cy="693.36" r="31.36"/><path class="cls-4" d="M434.28,693.36a31.36,31.36,0,0,1,53.53-22.18"/><path class="cls-4" d="M494.53,705.56a31.37,31.37,0,0,1-52.89,8"/></g><path class="cls-9" d="M732,482.19c2.47-10.68,70.29-13.77,65.35,42.93"/><circle class="cls-8" cx="797.62" cy="538.08" r="15"/><circle class="cls-6" cx="797.62" cy="538.08" r="12.44"/><path class="cls-9" d="M797.62,550.52s-17.14,27.6-48.35,27.6"/><ellipse class="cls-5" cx="750.81" cy="576.9" rx="7.87" ry="4.53"/></svg>